solid OpenSCAD_Model
  facet normal -1 0 0
    outer loop
      vertex -12.8838 -3.45726 -0.299999
      vertex -12.8838 -2.5 0.299999
      vertex -12.8838 -2.5 -0.299999
    endloop
  endfacet
  facet normal -1 -0 0
    outer loop
      vertex -12.8838 -2.5 0.299999
      vertex -12.8838 -3.45726 -0.299999
      vertex -12.8838 -3.45726 0.299999
    endloop
  endfacet
  facet normal 0 0 1
    outer loop
      vertex 9 6.5 0.299999
      vertex -9 6.5 0.299999
      vertex 9 6.41229 0.299999
    endloop
  endfacet
  facet normal -0 0 1
    outer loop
      vertex 12 3.5 0.299999
      vertex 13 2.5 0.299999
      vertex 12.5418 4.35889 0.299999
    endloop
  endfacet
  facet normal 0 0 1
    outer loop
      vertex 13 2.5 0.299999
      vertex 12 3.5 0.299999
      vertex 13 -2.5 0.299999
    endloop
  endfacet
  facet normal 0 0 1
    outer loop
      vertex 12 -3.5 0.299999
      vertex 13 -2.5 0.299999
      vertex 12 3.5 0.299999
    endloop
  endfacet
  facet normal -0 0 1
    outer loop
      vertex 11.247 5.06366 0.299999
      vertex 12.5418 4.35889 0.299999
      vertex 11.2723 5.79193 0.299999
    endloop
  endfacet
  facet normal 0 0 1
    outer loop
      vertex 12.5418 4.35889 0.299999
      vertex 11.247 5.06366 0.299999
      vertex 12 3.5 0.299999
    endloop
  endfacet
  facet normal 0 0 1
    outer loop
      vertex 11.2723 5.79193 0.299999
      vertex 10 5.5 0.299999
      vertex 11.247 5.06366 0.299999
    endloop
  endfacet
  facet normal 0 0 1
    outer loop
      vertex 9.48215 6.47083 0.299999
      vertex 10 5.5 0.299999
      vertex 11.2723 5.79193 0.299999
    endloop
  endfacet
  facet normal -0 0 1
    outer loop
      vertex 9 6.41229 0.299999
      vertex 10 5.5 0.299999
      vertex 9.48215 6.47083 0.299999
    endloop
  endfacet
  facet normal 0 0 1
    outer loop
      vertex -9 6.41229 0.299999
      vertex 9 6.41229 0.299999
      vertex -9 6.5 0.299999
    endloop
  endfacet
  facet normal 0 0 1
    outer loop
      vertex 9 6.41229 0.299999
      vertex -9 6.41229 0.299999
      vertex 10 5.5 0.299999
    endloop
  endfacet
  facet normal 0 0 1
    outer loop
      vertex -9 6.41229 0.299999
      vertex -10 5.5 0.299999
      vertex 10 5.5 0.299999
    endloop
  endfacet
  facet normal -0 0 1
    outer loop
      vertex -10.4184 6.24006 0.299999
      vertex -10 5.5 0.299999
      vertex -9 6.41229 0.299999
    endloop
  endfacet
  facet normal 0 0 1
    outer loop
      vertex -10.445 5.44986 0.299999
      vertex -10 5.5 0.299999
      vertex -10.4184 6.24006 0.299999
    endloop
  endfacet
  facet normal 0 0 1
    outer loop
      vertex -10 5.5 0.299999
      vertex -10.445 5.44986 0.299999
      vertex -10 5.34828 0.299999
    endloop
  endfacet
  facet normal 0 0 1
    outer loop
      vertex -11.994 5.15249 0.299999
      vertex -10.445 5.44986 0.299999
      vertex -10.4184 6.24006 0.299999
    endloop
  endfacet
  facet normal 0 0 1
    outer loop
      vertex -10.445 5.44986 0.299999
      vertex -11.994 5.15249 0.299999
      vertex -11.8019 4.36777 0.299999
    endloop
  endfacet
  facet normal 0 0 1
    outer loop
      vertex -12.8838 3.45726 0.299999
      vertex -11.8019 4.36777 0.299999
      vertex -11.994 5.15249 0.299999
    endloop
  endfacet
  facet normal 0 0 1
    outer loop
      vertex -11.8019 4.36777 0.299999
      vertex -12 3.5 0.299999
      vertex -11.8019 3.5 0.299999
    endloop
  endfacet
  facet normal 0 0 1
    outer loop
      vertex -12.8838 2.5 0.299999
      vertex -12 3.5 0.299999
      vertex -12.8838 3.45726 0.299999
    endloop
  endfacet
  facet normal 0 0 1
    outer loop
      vertex -11.8019 4.36777 0.299999
      vertex -12.8838 3.45726 0.299999
      vertex -12 3.5 0.299999
    endloop
  endfacet
  facet normal 0 0 1
    outer loop
      vertex 13 -2.5 0.299999
      vertex 12 -3.5 0.299999
      vertex 12.5418 -4.35889 0.299999
    endloop
  endfacet
  facet normal 0 0 1
    outer loop
      vertex 11.247 -5.06366 0.299999
      vertex 12.5418 -4.35889 0.299999
      vertex 12 -3.5 0.299999
    endloop
  endfacet
  facet normal 0 0 1
    outer loop
      vertex 12.5418 -4.35889 0.299999
      vertex 11.247 -5.06366 0.299999
      vertex 11.2723 -5.79193 0.299999
    endloop
  endfacet
  facet normal 0 0 1
    outer loop
      vertex 10 -5.5 0.299999
      vertex 11.247 -5.06366 0.299999
      vertex 10 -5.34828 0.299999
    endloop
  endfacet
  facet normal 0 0 1
    outer loop
      vertex 11.247 -5.06366 0.299999
      vertex 10 -5.5 0.299999
      vertex 11.2723 -5.79193 0.299999
    endloop
  endfacet
  facet normal 0 0 1
    outer loop
      vertex 10 -5.5 0.299999
      vertex 9.48215 -6.47083 0.299999
      vertex 11.2723 -5.79193 0.299999
    endloop
  endfacet
  facet normal 0 0 1
    outer loop
      vertex 10 -5.5 0.299999
      vertex 9 -6.41229 0.299999
      vertex 9.48215 -6.47083 0.299999
    endloop
  endfacet
  facet normal 0 0 1
    outer loop
      vertex 9 -6.41229 0.299999
      vertex -9 -6.41229 0.299999
      vertex 9 -6.5 0.299999
    endloop
  endfacet
  facet normal 0 0 1
    outer loop
      vertex 10 -5.5 0.299999
      vertex -9 -6.41229 0.299999
      vertex 9 -6.41229 0.299999
    endloop
  endfacet
  facet normal -0 0 1
    outer loop
      vertex -10 -5.5 0.299999
      vertex -9 -6.41229 0.299999
      vertex 10 -5.5 0.299999
    endloop
  endfacet
  facet normal 0 0 1
    outer loop
      vertex -9 -6.41229 0.299999
      vertex -10 -5.5 0.299999
      vertex -10.4184 -6.24006 0.299999
    endloop
  endfacet
  facet normal 0 0 1
    outer loop
      vertex 11.247 5.06366 0.299999
      vertex 10 5.5 0.299999
      vertex 10 5.34828 0.299999
    endloop
  endfacet
  facet normal -0 0 1
    outer loop
      vertex -13 2.5 0.299999
      vertex -12.8838 -2.5 0.299999
      vertex -12.8838 2.5 0.299999
    endloop
  endfacet
  facet normal 0 0 1
    outer loop
      vertex -12.8838 -2.5 0.299999
      vertex -13 2.5 0.299999
      vertex -13 -2.5 0.299999
    endloop
  endfacet
  facet normal -0 0 1
    outer loop
      vertex -12 -3.5 0.299999
      vertex -11.8019 -4.36777 0.299999
      vertex -11.8019 -3.5 0.299999
    endloop
  endfacet
  facet normal 0 0 1
    outer loop
      vertex -12.8838 -3.45726 0.299999
      vertex -11.8019 -4.36777 0.299999
      vertex -12 -3.5 0.299999
    endloop
  endfacet
  facet normal 0 0 1
    outer loop
      vertex -12 3.5 0.299999
      vertex -12.8838 2.5 0.299999
      vertex -12 -3.5 0.299999
    endloop
  endfacet
  facet normal -0 0 1
    outer loop
      vertex -12.8838 -2.5 0.299999
      vertex -12 -3.5 0.299999
      vertex -12.8838 2.5 0.299999
    endloop
  endfacet
  facet normal -0 0 1
    outer loop
      vertex -12.8838 -3.45726 0.299999
      vertex -12 -3.5 0.299999
      vertex -12.8838 -2.5 0.299999
    endloop
  endfacet
  facet normal 0 0 1
    outer loop
      vertex -11.8019 -4.36777 0.299999
      vertex -12.8838 -3.45726 0.299999
      vertex -11.994 -5.15249 0.299999
    endloop
  endfacet
  facet normal -0 0 1
    outer loop
      vertex -10.445 -5.44986 0.299999
      vertex -10 -5.5 0.299999
      vertex -10 -5.34828 0.299999
    endloop
  endfacet
  facet normal 0 0 1
    outer loop
      vertex -10 -5.5 0.299999
      vertex -10.445 -5.44986 0.299999
      vertex -10.4184 -6.24006 0.299999
    endloop
  endfacet
  facet normal -0 0 1
    outer loop
      vertex -11.994 -5.15249 0.299999
      vertex -10.445 -5.44986 0.299999
      vertex -11.8019 -4.36777 0.299999
    endloop
  endfacet
  facet normal 0 0 1
    outer loop
      vertex -10.445 -5.44986 0.299999
      vertex -11.994 -5.15249 0.299999
      vertex -10.4184 -6.24006 0.299999
    endloop
  endfacet
  facet normal 0 0 1
    outer loop
      vertex 9 -6.5 0.299999
      vertex -9 -6.41229 0.299999
      vertex -9 -6.5 0.299999
    endloop
  endfacet
  facet normal -0.885456 -0.464723 0
    outer loop
      vertex -11.994 -5.15249 -0.299999
      vertex -12.8838 -3.45726 0.299999
      vertex -12.8838 -3.45726 -0.299999
    endloop
  endfacet
  facet normal -0.885456 -0.464723 0
    outer loop
      vertex -12.8838 -3.45726 0.299999
      vertex -11.994 -5.15249 -0.299999
      vertex -11.994 -5.15249 0.299999
    endloop
  endfacet
  facet normal 0 0 -1
    outer loop
      vertex 9 -6.5 -0.299999
      vertex -9 -6.5 -0.299999
      vertex 9 -6.41229 -0.299999
    endloop
  endfacet
  facet normal 0 0 -1
    outer loop
      vertex 11.5 -3 -0.299999
      vertex 13 -2.5 -0.299999
      vertex 12.5418 -4.35889 -0.299999
    endloop
  endfacet
  facet normal -0 0 -1
    outer loop
      vertex 13 -2.5 -0.299999
      vertex 11.5 -3 -0.299999
      vertex 13 2.5 -0.299999
    endloop
  endfacet
  facet normal 0 0 -1
    outer loop
      vertex 11.5 3 -0.299999
      vertex 13 2.5 -0.299999
      vertex 11.5 -3 -0.299999
    endloop
  endfacet
  facet normal 0 0 -1
    outer loop
      vertex 10.747 -4.56366 -0.299999
      vertex 12.5418 -4.35889 -0.299999
      vertex 11.2723 -5.79193 -0.299999
    endloop
  endfacet
  facet normal -0 0 -1
    outer loop
      vertex 12.5418 -4.35889 -0.299999
      vertex 10.747 -4.56366 -0.299999
      vertex 11.5 -3 -0.299999
    endloop
  endfacet
  facet normal 0 0 -1
    outer loop
      vertex 11.2723 -5.79193 -0.299999
      vertex 9.5 -5 -0.299999
      vertex 10.747 -4.56366 -0.299999
    endloop
  endfacet
  facet normal 0 0 -1
    outer loop
      vertex 9.48215 -6.47083 -0.299999
      vertex 9.5 -5 -0.299999
      vertex 11.2723 -5.79193 -0.299999
    endloop
  endfacet
  facet normal 0 0 -1
    outer loop
      vertex 9 -6.41229 -0.299999
      vertex 9.5 -5 -0.299999
      vertex 9.48215 -6.47083 -0.299999
    endloop
  endfacet
  facet normal 0 0 -1
    outer loop
      vertex -9 -6.41229 -0.299999
      vertex 9 -6.41229 -0.299999
      vertex -9 -6.5 -0.299999
    endloop
  endfacet
  facet normal 0 0 -1
    outer loop
      vertex 9 -6.41229 -0.299999
      vertex -9 -6.41229 -0.299999
      vertex 9.5 -5 -0.299999
    endloop
  endfacet
  facet normal 0 0 -1
    outer loop
      vertex -9 -6.41229 -0.299999
      vertex -9.5 -5 -0.299999
      vertex 9.5 -5 -0.299999
    endloop
  endfacet
  facet normal 0 0 -1
    outer loop
      vertex -9.5 -5 -0.299999
      vertex -9.94504 -4.94986 -0.299999
      vertex -9.5 -4.84828 -0.299999
    endloop
  endfacet
  facet normal 0 0 -1
    outer loop
      vertex -10.4184 -6.24006 -0.299999
      vertex -9.5 -5 -0.299999
      vertex -9 -6.41229 -0.299999
    endloop
  endfacet
  facet normal -0 0 -1
    outer loop
      vertex -9.5 -5 -0.299999
      vertex -10.4184 -6.24006 -0.299999
      vertex -9.94504 -4.94986 -0.299999
    endloop
  endfacet
  facet normal 0 0 -1
    outer loop
      vertex -11.994 -5.15249 -0.299999
      vertex -9.94504 -4.94986 -0.299999
      vertex -10.4184 -6.24006 -0.299999
    endloop
  endfacet
  facet normal 0 0 -1
    outer loop
      vertex -11.3019 -3.86777 -0.299999
      vertex -11.5 -3 -0.299999
      vertex -11.3019 -3 -0.299999
    endloop
  endfacet
  facet normal 0 0 -1
    outer loop
      vertex -11.3019 -3.86777 -0.299999
      vertex -12.8838 -3.45726 -0.299999
      vertex -11.5 -3 -0.299999
    endloop
  endfacet
  facet normal 0 0 -1
    outer loop
      vertex -12.8838 -3.45726 -0.299999
      vertex -11.3019 -3.86777 -0.299999
      vertex -11.994 -5.15249 -0.299999
    endloop
  endfacet
  facet normal -0 0 -1
    outer loop
      vertex -9.94504 -4.94986 -0.299999
      vertex -11.994 -5.15249 -0.299999
      vertex -11.3019 -3.86777 -0.299999
    endloop
  endfacet
  facet normal 0 0 -1
    outer loop
      vertex 13 2.5 -0.299999
      vertex 11.5 3 -0.299999
      vertex 12.5418 4.35889 -0.299999
    endloop
  endfacet
  facet normal 0 0 -1
    outer loop
      vertex 10.747 4.56366 -0.299999
      vertex 12.5418 4.35889 -0.299999
      vertex 11.5 3 -0.299999
    endloop
  endfacet
  facet normal 0 0 -1
    outer loop
      vertex 12.5418 4.35889 -0.299999
      vertex 10.747 4.56366 -0.299999
      vertex 11.2723 5.79193 -0.299999
    endloop
  endfacet
  facet normal 0 0 -1
    outer loop
      vertex 9.5 5 -0.299999
      vertex 10.747 4.56366 -0.299999
      vertex 9.5 4.84828 -0.299999
    endloop
  endfacet
  facet normal 0 0 -1
    outer loop
      vertex 10.747 4.56366 -0.299999
      vertex 9.5 5 -0.299999
      vertex 11.2723 5.79193 -0.299999
    endloop
  endfacet
  facet normal 0 0 -1
    outer loop
      vertex 9.5 5 -0.299999
      vertex 9.48215 6.47083 -0.299999
      vertex 11.2723 5.79193 -0.299999
    endloop
  endfacet
  facet normal 0 0 -1
    outer loop
      vertex 9.5 5 -0.299999
      vertex 9 6.41229 -0.299999
      vertex 9.48215 6.47083 -0.299999
    endloop
  endfacet
  facet normal 0 0 -1
    outer loop
      vertex 9 6.41229 -0.299999
      vertex -9 6.41229 -0.299999
      vertex 9 6.5 -0.299999
    endloop
  endfacet
  facet normal 0 0 -1
    outer loop
      vertex 9.5 5 -0.299999
      vertex -9 6.41229 -0.299999
      vertex 9 6.41229 -0.299999
    endloop
  endfacet
  facet normal 0 0 -1
    outer loop
      vertex -9.5 5 -0.299999
      vertex -9 6.41229 -0.299999
      vertex 9.5 5 -0.299999
    endloop
  endfacet
  facet normal 0 0 -1
    outer loop
      vertex -10.4184 6.24006 -0.299999
      vertex -9.5 5 -0.299999
      vertex -9.94504 4.94986 -0.299999
    endloop
  endfacet
  facet normal 0 0 -1
    outer loop
      vertex -9.5 5 -0.299999
      vertex -10.4184 6.24006 -0.299999
      vertex -9 6.41229 -0.299999
    endloop
  endfacet
  facet normal 0 0 -1
    outer loop
      vertex -11.994 5.15249 -0.299999
      vertex -9.94504 4.94986 -0.299999
      vertex -11.3019 3.86777 -0.299999
    endloop
  endfacet
  facet normal 0 0 -1
    outer loop
      vertex -9.94504 4.94986 -0.299999
      vertex -11.994 5.15249 -0.299999
      vertex -10.4184 6.24006 -0.299999
    endloop
  endfacet
  facet normal 0 0 -1
    outer loop
      vertex -12.8838 3.45726 -0.299999
      vertex -11.3019 3.86777 -0.299999
      vertex -11.5 3 -0.299999
    endloop
  endfacet
  facet normal 0 0 -1
    outer loop
      vertex -11.5 -3 -0.299999
      vertex -12.8838 -2.5 -0.299999
      vertex -11.5 3 -0.299999
    endloop
  endfacet
  facet normal -0 0 -1
    outer loop
      vertex -11.5 -3 -0.299999
      vertex -12.8838 -3.45726 -0.299999
      vertex -12.8838 -2.5 -0.299999
    endloop
  endfacet
  facet normal 0 0 -1
    outer loop
      vertex -12.8838 2.5 -0.299999
      vertex -11.5 3 -0.299999
      vertex -12.8838 -2.5 -0.299999
    endloop
  endfacet
  facet normal 0 0 -1
    outer loop
      vertex -12.8838 3.45726 -0.299999
      vertex -11.5 3 -0.299999
      vertex -12.8838 2.5 -0.299999
    endloop
  endfacet
  facet normal -0 0 -1
    outer loop
      vertex -11.3019 3.86777 -0.299999
      vertex -12.8838 3.45726 -0.299999
      vertex -11.994 5.15249 -0.299999
    endloop
  endfacet
  facet normal 0 0 -1
    outer loop
      vertex 10.747 -4.56366 -0.299999
      vertex 9.5 -5 -0.299999
      vertex 9.5 -4.84828 -0.299999
    endloop
  endfacet
  facet normal 0 0 -1
    outer loop
      vertex -13 -2.5 -0.299999
      vertex -12.8838 2.5 -0.299999
      vertex -12.8838 -2.5 -0.299999
    endloop
  endfacet
  facet normal -0 0 -1
    outer loop
      vertex -12.8838 2.5 -0.299999
      vertex -13 -2.5 -0.299999
      vertex -13 2.5 -0.299999
    endloop
  endfacet
  facet normal 0 0 -1
    outer loop
      vertex -11.3019 3 -0.299999
      vertex -11.5 3 -0.299999
      vertex -11.3019 3.86777 -0.299999
    endloop
  endfacet
  facet normal 0 0 -1
    outer loop
      vertex -9.5 4.84828 -0.299999
      vertex -9.94504 4.94986 -0.299999
      vertex -9.5 5 -0.299999
    endloop
  endfacet
  facet normal -0 0 -1
    outer loop
      vertex 9 6.5 -0.299999
      vertex -9 6.41229 -0.299999
      vertex -9 6.5 -0.299999
    endloop
  endfacet
  facet normal -0.568065 -0.822984 0
    outer loop
      vertex -11.994 -5.15249 -0.299999
      vertex -10.4184 -6.24006 0.299999
      vertex -11.994 -5.15249 0.299999
    endloop
  endfacet
  facet normal -0.568065 -0.822984 -0
    outer loop
      vertex -10.4184 -6.24006 0.299999
      vertex -11.994 -5.15249 -0.299999
      vertex -10.4184 -6.24006 -0.299999
    endloop
  endfacet
  facet normal -0.120536 -0.992709 0
    outer loop
      vertex -10.4184 -6.24006 -0.299999
      vertex -9 -6.41229 0.299999
      vertex -10.4184 -6.24006 0.299999
    endloop
  endfacet
  facet normal -0.120536 -0.992709 -0
    outer loop
      vertex -9 -6.41229 0.299999
      vertex -10.4184 -6.24006 -0.299999
      vertex -9 -6.41229 -0.299999
    endloop
  endfacet
  facet normal -1 0 0
    outer loop
      vertex -12.8838 2.5 -0.299999
      vertex -12.8838 3.45726 0.299999
      vertex -12.8838 3.45726 -0.299999
    endloop
  endfacet
  facet normal -1 -0 0
    outer loop
      vertex -12.8838 3.45726 0.299999
      vertex -12.8838 2.5 -0.299999
      vertex -12.8838 2.5 0.299999
    endloop
  endfacet
  facet normal -0.120536 0.992709 0
    outer loop
      vertex -9 6.41229 -0.299999
      vertex -10.4184 6.24006 0.299999
      vertex -9 6.41229 0.299999
    endloop
  endfacet
  facet normal -0.120536 0.992709 0
    outer loop
      vertex -10.4184 6.24006 0.299999
      vertex -9 6.41229 -0.299999
      vertex -10.4184 6.24006 -0.299999
    endloop
  endfacet
  facet normal -0.568065 0.822984 0
    outer loop
      vertex -10.4184 6.24006 -0.299999
      vertex -11.994 5.15249 0.299999
      vertex -10.4184 6.24006 0.299999
    endloop
  endfacet
  facet normal -0.568065 0.822984 0
    outer loop
      vertex -11.994 5.15249 0.299999
      vertex -10.4184 6.24006 -0.299999
      vertex -11.994 5.15249 -0.299999
    endloop
  endfacet
  facet normal -0.885456 0.464723 0
    outer loop
      vertex -12.8838 3.45726 -0.299999
      vertex -11.994 5.15249 0.299999
      vertex -11.994 5.15249 -0.299999
    endloop
  endfacet
  facet normal -0.885456 0.464723 0
    outer loop
      vertex -11.994 5.15249 0.299999
      vertex -12.8838 3.45726 -0.299999
      vertex -12.8838 3.45726 0.299999
    endloop
  endfacet
  facet normal 0.970942 -0.239316 0
    outer loop
      vertex 12.5418 -4.35889 0.299999
      vertex 13 -2.5 -0.299999
      vertex 13 -2.5 0.299999
    endloop
  endfacet
  facet normal 0.970942 -0.239316 0
    outer loop
      vertex 13 -2.5 -0.299999
      vertex 12.5418 -4.35889 0.299999
      vertex 12.5418 -4.35889 -0.299999
    endloop
  endfacet
  facet normal 0.748511 -0.663123 0
    outer loop
      vertex 11.2723 -5.79193 0.299999
      vertex 12.5418 -4.35889 -0.299999
      vertex 12.5418 -4.35889 0.299999
    endloop
  endfacet
  facet normal 0.748511 -0.663123 0
    outer loop
      vertex 12.5418 -4.35889 -0.299999
      vertex 11.2723 -5.79193 0.299999
      vertex 11.2723 -5.79193 -0.299999
    endloop
  endfacet
  facet normal 0.354605 -0.935016 0
    outer loop
      vertex 9.48215 -6.47083 -0.299999
      vertex 11.2723 -5.79193 0.299999
      vertex 9.48215 -6.47083 0.299999
    endloop
  endfacet
  facet normal 0.354605 -0.935016 0
    outer loop
      vertex 11.2723 -5.79193 0.299999
      vertex 9.48215 -6.47083 -0.299999
      vertex 11.2723 -5.79193 -0.299999
    endloop
  endfacet
  facet normal -0.120537 -0.992709 0
    outer loop
      vertex 9 -6.41229 -0.299999
      vertex 9.48215 -6.47083 0.299999
      vertex 9 -6.41229 0.299999
    endloop
  endfacet
  facet normal -0.120537 -0.992709 -0
    outer loop
      vertex 9.48215 -6.47083 0.299999
      vertex 9 -6.41229 -0.299999
      vertex 9.48215 -6.47083 -0.299999
    endloop
  endfacet
  facet normal 0.970942 0.239316 0
    outer loop
      vertex 13 2.5 0.299999
      vertex 12.5418 4.35889 -0.299999
      vertex 12.5418 4.35889 0.299999
    endloop
  endfacet
  facet normal 0.970942 0.239316 0
    outer loop
      vertex 12.5418 4.35889 -0.299999
      vertex 13 2.5 0.299999
      vertex 13 2.5 -0.299999
    endloop
  endfacet
  facet normal -0.120537 0.992709 0
    outer loop
      vertex 9.48215 6.47083 -0.299999
      vertex 9 6.41229 0.299999
      vertex 9.48215 6.47083 0.299999
    endloop
  endfacet
  facet normal -0.120537 0.992709 0
    outer loop
      vertex 9 6.41229 0.299999
      vertex 9.48215 6.47083 -0.299999
      vertex 9 6.41229 -0.299999
    endloop
  endfacet
  facet normal 0.748511 0.663123 0
    outer loop
      vertex 12.5418 4.35889 0.299999
      vertex 11.2723 5.79193 -0.299999
      vertex 11.2723 5.79193 0.299999
    endloop
  endfacet
  facet normal 0.748511 0.663123 0
    outer loop
      vertex 11.2723 5.79193 -0.299999
      vertex 12.5418 4.35889 0.299999
      vertex 12.5418 4.35889 -0.299999
    endloop
  endfacet
  facet normal 0.354605 0.935016 -0
    outer loop
      vertex 11.2723 5.79193 -0.299999
      vertex 9.48215 6.47083 0.299999
      vertex 11.2723 5.79193 0.299999
    endloop
  endfacet
  facet normal 0.354605 0.935016 0
    outer loop
      vertex 9.48215 6.47083 0.299999
      vertex 11.2723 5.79193 -0.299999
      vertex 9.48215 6.47083 -0.299999
    endloop
  endfacet
  facet normal -1 0 0
    outer loop
      vertex -9 -6.5 -0.299999
      vertex -9 -6.41229 0.299999
      vertex -9 -6.41229 -0.299999
    endloop
  endfacet
  facet normal -1 -0 0
    outer loop
      vertex -9 -6.41229 0.299999
      vertex -9 -6.5 -0.299999
      vertex -9 -6.5 0.299999
    endloop
  endfacet
  facet normal -1 0 0
    outer loop
      vertex -9 6.41229 -0.299999
      vertex -9 6.5 0.299999
      vertex -9 6.5 -0.299999
    endloop
  endfacet
  facet normal -1 -0 0
    outer loop
      vertex -9 6.5 0.299999
      vertex -9 6.41229 -0.299999
      vertex -9 6.41229 0.299999
    endloop
  endfacet
  facet normal 1 -0 0
    outer loop
      vertex 9 -6.5 0.299999
      vertex 9 -6.41229 -0.299999
      vertex 9 -6.41229 0.299999
    endloop
  endfacet
  facet normal 1 0 0
    outer loop
      vertex 9 -6.41229 -0.299999
      vertex 9 -6.5 0.299999
      vertex 9 -6.5 -0.299999
    endloop
  endfacet
  facet normal 1 -0 0
    outer loop
      vertex 9 6.41229 0.299999
      vertex 9 6.5 -0.299999
      vertex 9 6.5 0.299999
    endloop
  endfacet
  facet normal 1 0 0
    outer loop
      vertex 9 6.5 -0.299999
      vertex 9 6.41229 0.299999
      vertex 9 6.41229 -0.299999
    endloop
  endfacet
  facet normal 0 -1 0
    outer loop
      vertex -9 -6.5 -0.299999
      vertex 9 -6.5 0.299999
      vertex -9 -6.5 0.299999
    endloop
  endfacet
  facet normal 0 -1 -0
    outer loop
      vertex 9 -6.5 0.299999
      vertex -9 -6.5 -0.299999
      vertex 9 -6.5 -0.299999
    endloop
  endfacet
  facet normal 0 1 -0
    outer loop
      vertex 9 6.5 -0.299999
      vertex -9 6.5 0.299999
      vertex 9 6.5 0.299999
    endloop
  endfacet
  facet normal 0 1 0
    outer loop
      vertex -9 6.5 0.299999
      vertex 9 6.5 -0.299999
      vertex -9 6.5 -0.299999
    endloop
  endfacet
  facet normal -1 0 0
    outer loop
      vertex -13 -2.5 -0.299999
      vertex -13 2.5 0.299999
      vertex -13 2.5 -0.299999
    endloop
  endfacet
  facet normal -1 -0 0
    outer loop
      vertex -13 2.5 0.299999
      vertex -13 -2.5 -0.299999
      vertex -13 -2.5 0.299999
    endloop
  endfacet
  facet normal 1 -0 0
    outer loop
      vertex 13 -2.5 0.299999
      vertex 13 2.5 -0.299999
      vertex 13 2.5 0.299999
    endloop
  endfacet
  facet normal 1 0 0
    outer loop
      vertex 13 2.5 -0.299999
      vertex 13 -2.5 0.299999
      vertex 13 -2.5 -0.299999
    endloop
  endfacet
  facet normal 0 -1 0
    outer loop
      vertex -13 -2.5 -0.299999
      vertex -12.8838 -2.5 0.299999
      vertex -13 -2.5 0.299999
    endloop
  endfacet
  facet normal 0 -1 -0
    outer loop
      vertex -12.8838 -2.5 0.299999
      vertex -13 -2.5 -0.299999
      vertex -12.8838 -2.5 -0.299999
    endloop
  endfacet
  facet normal 0 1 -0
    outer loop
      vertex -12.8838 2.5 -0.299999
      vertex -13 2.5 0.299999
      vertex -12.8838 2.5 0.299999
    endloop
  endfacet
  facet normal 0 1 0
    outer loop
      vertex -13 2.5 0.299999
      vertex -12.8838 2.5 -0.299999
      vertex -13 2.5 -0.299999
    endloop
  endfacet
  facet normal 1 -0 0
    outer loop
      vertex -11.3019 -3.86777 -0.0999992
      vertex -11.3019 -3 -0.299999
      vertex -11.3019 -3 -0.0999992
    endloop
  endfacet
  facet normal 1 0 0
    outer loop
      vertex -11.3019 -3 -0.299999
      vertex -11.3019 -3.86777 -0.0999992
      vertex -11.3019 -3.86777 -0.299999
    endloop
  endfacet
  facet normal -0.222521 0.974928 0
    outer loop
      vertex -9.5 -4.84828 -0.299999
      vertex -9.94504 -4.94986 -0.0999992
      vertex -9.5 -4.84828 -0.0999992
    endloop
  endfacet
  facet normal -0.222521 0.974928 0
    outer loop
      vertex -9.94504 -4.94986 -0.0999992
      vertex -9.5 -4.84828 -0.299999
      vertex -9.94504 -4.94986 -0.299999
    endloop
  endfacet
  facet normal 0.62349 0.781831 -0
    outer loop
      vertex -9.94504 -4.94986 -0.299999
      vertex -11.3019 -3.86777 -0.0999992
      vertex -9.94504 -4.94986 -0.0999992
    endloop
  endfacet
  facet normal 0.62349 0.781831 0
    outer loop
      vertex -11.3019 -3.86777 -0.0999992
      vertex -9.94504 -4.94986 -0.299999
      vertex -11.3019 -3.86777 -0.299999
    endloop
  endfacet
  facet normal 1 -0 0
    outer loop
      vertex -11.3019 3 -0.0999992
      vertex -11.3019 3.86777 -0.299999
      vertex -11.3019 3.86777 -0.0999992
    endloop
  endfacet
  facet normal 1 0 0
    outer loop
      vertex -11.3019 3.86777 -0.299999
      vertex -11.3019 3 -0.0999992
      vertex -11.3019 3 -0.299999
    endloop
  endfacet
  facet normal -0.222521 -0.974928 0
    outer loop
      vertex -9.94504 4.94986 -0.299999
      vertex -9.5 4.84828 -0.0999992
      vertex -9.94504 4.94986 -0.0999992
    endloop
  endfacet
  facet normal -0.222521 -0.974928 -0
    outer loop
      vertex -9.5 4.84828 -0.0999992
      vertex -9.94504 4.94986 -0.299999
      vertex -9.5 4.84828 -0.299999
    endloop
  endfacet
  facet normal 0.62349 -0.781831 0
    outer loop
      vertex -11.3019 3.86777 -0.299999
      vertex -9.94504 4.94986 -0.0999992
      vertex -11.3019 3.86777 -0.0999992
    endloop
  endfacet
  facet normal 0.62349 -0.781831 0
    outer loop
      vertex -9.94504 4.94986 -0.0999992
      vertex -11.3019 3.86777 -0.299999
      vertex -9.94504 4.94986 -0.299999
    endloop
  endfacet
  facet normal -0.900969 0.433884 0
    outer loop
      vertex 10.747 -4.56366 -0.299999
      vertex 11.5 -3 -0.0999992
      vertex 11.5 -3 -0.299999
    endloop
  endfacet
  facet normal -0.900969 0.433884 0
    outer loop
      vertex 11.5 -3 -0.0999992
      vertex 10.747 -4.56366 -0.299999
      vertex 10.747 -4.56366 -0.0999992
    endloop
  endfacet
  facet normal -0.222521 0.974928 0
    outer loop
      vertex 10.747 -4.56366 -0.299999
      vertex 9.5 -4.84828 -0.0999992
      vertex 10.747 -4.56366 -0.0999992
    endloop
  endfacet
  facet normal -0.222521 0.974928 0
    outer loop
      vertex 9.5 -4.84828 -0.0999992
      vertex 10.747 -4.56366 -0.299999
      vertex 9.5 -4.84828 -0.299999
    endloop
  endfacet
  facet normal -0.900969 -0.433884 0
    outer loop
      vertex 11.5 3 -0.299999
      vertex 10.747 4.56366 -0.0999992
      vertex 10.747 4.56366 -0.299999
    endloop
  endfacet
  facet normal -0.900969 -0.433884 0
    outer loop
      vertex 10.747 4.56366 -0.0999992
      vertex 11.5 3 -0.299999
      vertex 11.5 3 -0.0999992
    endloop
  endfacet
  facet normal -0.222521 -0.974928 0
    outer loop
      vertex 9.5 4.84828 -0.299999
      vertex 10.747 4.56366 -0.0999992
      vertex 9.5 4.84828 -0.0999992
    endloop
  endfacet
  facet normal -0.222521 -0.974928 -0
    outer loop
      vertex 10.747 4.56366 -0.0999992
      vertex 9.5 4.84828 -0.299999
      vertex 10.747 4.56366 -0.299999
    endloop
  endfacet
  facet normal 1 -0 0
    outer loop
      vertex -9.5 4.84828 -0.0999992
      vertex -9.5 5 -0.299999
      vertex -9.5 5 -0.0999992
    endloop
  endfacet
  facet normal 1 0 0
    outer loop
      vertex -9.5 5 -0.299999
      vertex -9.5 4.84828 -0.0999992
      vertex -9.5 4.84828 -0.299999
    endloop
  endfacet
  facet normal 1 -0 0
    outer loop
      vertex -9.5 -5 -0.0999992
      vertex -9.5 -4.84828 -0.299999
      vertex -9.5 -4.84828 -0.0999992
    endloop
  endfacet
  facet normal 1 0 0
    outer loop
      vertex -9.5 -4.84828 -0.299999
      vertex -9.5 -5 -0.0999992
      vertex -9.5 -5 -0.299999
    endloop
  endfacet
  facet normal -1 0 0
    outer loop
      vertex 9.5 -5 -0.299999
      vertex 9.5 -4.84828 -0.0999992
      vertex 9.5 -4.84828 -0.299999
    endloop
  endfacet
  facet normal -1 -0 0
    outer loop
      vertex 9.5 -4.84828 -0.0999992
      vertex 9.5 -5 -0.299999
      vertex 9.5 -5 -0.0999992
    endloop
  endfacet
  facet normal -1 0 0
    outer loop
      vertex 9.5 4.84828 -0.299999
      vertex 9.5 5 -0.0999992
      vertex 9.5 5 -0.299999
    endloop
  endfacet
  facet normal -1 -0 0
    outer loop
      vertex 9.5 5 -0.0999992
      vertex 9.5 4.84828 -0.299999
      vertex 9.5 4.84828 -0.0999992
    endloop
  endfacet
  facet normal 0 -1 0
    outer loop
      vertex -9.5 5 -0.299999
      vertex 9.5 5 -0.0999992
      vertex -9.5 5 -0.0999992
    endloop
  endfacet
  facet normal 0 -1 -0
    outer loop
      vertex 9.5 5 -0.0999992
      vertex -9.5 5 -0.299999
      vertex 9.5 5 -0.299999
    endloop
  endfacet
  facet normal 0 1 -0
    outer loop
      vertex 9.5 -5 -0.299999
      vertex -9.5 -5 -0.0999992
      vertex 9.5 -5 -0.0999992
    endloop
  endfacet
  facet normal 0 1 0
    outer loop
      vertex -9.5 -5 -0.0999992
      vertex 9.5 -5 -0.299999
      vertex -9.5 -5 -0.299999
    endloop
  endfacet
  facet normal 1 -0 0
    outer loop
      vertex -11.5 -3 -0.0999992
      vertex -11.5 3 -0.299999
      vertex -11.5 3 -0.0999992
    endloop
  endfacet
  facet normal 1 0 0
    outer loop
      vertex -11.5 3 -0.299999
      vertex -11.5 -3 -0.0999992
      vertex -11.5 -3 -0.299999
    endloop
  endfacet
  facet normal -1 0 0
    outer loop
      vertex 11.5 -3 -0.299999
      vertex 11.5 3 -0.0999992
      vertex 11.5 3 -0.299999
    endloop
  endfacet
  facet normal -1 -0 0
    outer loop
      vertex 11.5 3 -0.0999992
      vertex 11.5 -3 -0.299999
      vertex 11.5 -3 -0.0999992
    endloop
  endfacet
  facet normal 0 1 -0
    outer loop
      vertex -11.3019 -3 -0.299999
      vertex -11.5 -3 -0.0999992
      vertex -11.3019 -3 -0.0999992
    endloop
  endfacet
  facet normal 0 1 0
    outer loop
      vertex -11.5 -3 -0.0999992
      vertex -11.3019 -3 -0.299999
      vertex -11.5 -3 -0.299999
    endloop
  endfacet
  facet normal 0 -1 0
    outer loop
      vertex -11.5 3 -0.299999
      vertex -11.3019 3 -0.0999992
      vertex -11.5 3 -0.0999992
    endloop
  endfacet
  facet normal 0 -1 -0
    outer loop
      vertex -11.3019 3 -0.0999992
      vertex -11.5 3 -0.299999
      vertex -11.3019 3 -0.299999
    endloop
  endfacet
  facet normal 1 -0 0
    outer loop
      vertex -11.8019 -4.36777 0.299999
      vertex -11.8019 -3.5 -0.0999992
      vertex -11.8019 -3.5 0.299999
    endloop
  endfacet
  facet normal 1 0 0
    outer loop
      vertex -11.8019 -3.5 -0.0999992
      vertex -11.8019 -4.36777 0.299999
      vertex -11.8019 -4.36777 -0.0999992
    endloop
  endfacet
  facet normal 0.62349 0.781831 -0
    outer loop
      vertex -10.445 -5.44986 -0.0999992
      vertex -11.8019 -4.36777 0.299999
      vertex -10.445 -5.44986 0.299999
    endloop
  endfacet
  facet normal 0.62349 0.781831 0
    outer loop
      vertex -11.8019 -4.36777 0.299999
      vertex -10.445 -5.44986 -0.0999992
      vertex -11.8019 -4.36777 -0.0999992
    endloop
  endfacet
  facet normal 0 0 1
    outer loop
      vertex -12 -3.5 -0.0999992
      vertex -11.5 -3 -0.0999992
      vertex -12 3.5 -0.0999992
    endloop
  endfacet
  facet normal 0 0 1
    outer loop
      vertex -11.5 -3 -0.0999992
      vertex -12 -3.5 -0.0999992
      vertex -11.8019 -3.5 -0.0999992
    endloop
  endfacet
  facet normal 0 0 1
    outer loop
      vertex -11.8019 -3.5 -0.0999992
      vertex -11.3019 -3 -0.0999992
      vertex -11.5 -3 -0.0999992
    endloop
  endfacet
  facet normal 0 0 1
    outer loop
      vertex -9.5 -4.84828 -0.0999992
      vertex -9.94504 -4.94986 -0.0999992
      vertex -9.5 -5 -0.0999992
    endloop
  endfacet
  facet normal 0 0 1
    outer loop
      vertex 10 5.5 -0.0999992
      vertex 9.5 5 -0.0999992
      vertex 10 5.34828 -0.0999992
    endloop
  endfacet
  facet normal 0 0 1
    outer loop
      vertex 10 5.5 -0.0999992
      vertex -9.5 5 -0.0999992
      vertex 9.5 5 -0.0999992
    endloop
  endfacet
  facet normal 0 0 1
    outer loop
      vertex -9.5 5 -0.0999992
      vertex -9.94504 4.94986 -0.0999992
      vertex -9.5 4.84828 -0.0999992
    endloop
  endfacet
  facet normal -0 0 1
    outer loop
      vertex -10 5.5 -0.0999992
      vertex -9.5 5 -0.0999992
      vertex 10 5.5 -0.0999992
    endloop
  endfacet
  facet normal -0 0 1
    outer loop
      vertex -10 5.34828 -0.0999992
      vertex -9.5 5 -0.0999992
      vertex -10 5.5 -0.0999992
    endloop
  endfacet
  facet normal 0 0 1
    outer loop
      vertex -9.5 5 -0.0999992
      vertex -10 5.34828 -0.0999992
      vertex -9.94504 4.94986 -0.0999992
    endloop
  endfacet
  facet normal 0 0 1
    outer loop
      vertex -10.445 5.44986 -0.0999992
      vertex -9.94504 4.94986 -0.0999992
      vertex -10 5.34828 -0.0999992
    endloop
  endfacet
  facet normal 0 0 1
    outer loop
      vertex -10.445 5.44986 -0.0999992
      vertex -11.3019 3.86777 -0.0999992
      vertex -9.94504 4.94986 -0.0999992
    endloop
  endfacet
  facet normal -0 0 1
    outer loop
      vertex -11.8019 3.5 -0.0999992
      vertex -11.3019 3 -0.0999992
      vertex -11.3019 3.86777 -0.0999992
    endloop
  endfacet
  facet normal 0 0 1
    outer loop
      vertex -11.3019 3 -0.0999992
      vertex -11.8019 3.5 -0.0999992
      vertex -11.5 3 -0.0999992
    endloop
  endfacet
  facet normal 0 0 1
    outer loop
      vertex -11.8019 3.5 -0.0999992
      vertex -11.3019 3.86777 -0.0999992
      vertex -11.8019 4.36777 -0.0999992
    endloop
  endfacet
  facet normal -0 0 1
    outer loop
      vertex -11.8019 4.36777 -0.0999992
      vertex -11.3019 3.86777 -0.0999992
      vertex -10.445 5.44986 -0.0999992
    endloop
  endfacet
  facet normal 0 0 1
    outer loop
      vertex 12 3.5 -0.0999992
      vertex 11.5 3 -0.0999992
      vertex 12 -3.5 -0.0999992
    endloop
  endfacet
  facet normal -0 0 1
    outer loop
      vertex 10.747 4.56366 -0.0999992
      vertex 12 3.5 -0.0999992
      vertex 11.247 5.06366 -0.0999992
    endloop
  endfacet
  facet normal 0 0 1
    outer loop
      vertex 12 3.5 -0.0999992
      vertex 10.747 4.56366 -0.0999992
      vertex 11.5 3 -0.0999992
    endloop
  endfacet
  facet normal 0 0 1
    outer loop
      vertex 10 5.34828 -0.0999992
      vertex 10.747 4.56366 -0.0999992
      vertex 11.247 5.06366 -0.0999992
    endloop
  endfacet
  facet normal 0 0 1
    outer loop
      vertex 9.5 4.84828 -0.0999992
      vertex 10 5.34828 -0.0999992
      vertex 9.5 5 -0.0999992
    endloop
  endfacet
  facet normal 0 0 1
    outer loop
      vertex 10 5.34828 -0.0999992
      vertex 9.5 4.84828 -0.0999992
      vertex 10.747 4.56366 -0.0999992
    endloop
  endfacet
  facet normal -0 0 1
    outer loop
      vertex 11.5 -3 -0.0999992
      vertex 12 -3.5 -0.0999992
      vertex 11.5 3 -0.0999992
    endloop
  endfacet
  facet normal 0 0 1
    outer loop
      vertex 10.747 -4.56366 -0.0999992
      vertex 12 -3.5 -0.0999992
      vertex 11.5 -3 -0.0999992
    endloop
  endfacet
  facet normal 0 0 1
    outer loop
      vertex 12 -3.5 -0.0999992
      vertex 10.747 -4.56366 -0.0999992
      vertex 11.247 -5.06366 -0.0999992
    endloop
  endfacet
  facet normal 0 0 1
    outer loop
      vertex 10.747 -4.56366 -0.0999992
      vertex 10 -5.34828 -0.0999992
      vertex 11.247 -5.06366 -0.0999992
    endloop
  endfacet
  facet normal -0 0 1
    outer loop
      vertex 9.5 -4.84828 -0.0999992
      vertex 10 -5.34828 -0.0999992
      vertex 10.747 -4.56366 -0.0999992
    endloop
  endfacet
  facet normal -0 0 1
    outer loop
      vertex 9.5 -5 -0.0999992
      vertex 10 -5.34828 -0.0999992
      vertex 9.5 -4.84828 -0.0999992
    endloop
  endfacet
  facet normal 0 0 1
    outer loop
      vertex 10 -5.34828 -0.0999992
      vertex 9.5 -5 -0.0999992
      vertex 10 -5.5 -0.0999992
    endloop
  endfacet
  facet normal -0 0 1
    outer loop
      vertex -9.5 -5 -0.0999992
      vertex 10 -5.5 -0.0999992
      vertex 9.5 -5 -0.0999992
    endloop
  endfacet
  facet normal 0 0 1
    outer loop
      vertex -10 -5.34828 -0.0999992
      vertex -9.5 -5 -0.0999992
      vertex -9.94504 -4.94986 -0.0999992
    endloop
  endfacet
  facet normal 0 0 1
    outer loop
      vertex -10 -5.5 -0.0999992
      vertex -9.5 -5 -0.0999992
      vertex -10 -5.34828 -0.0999992
    endloop
  endfacet
  facet normal 0 0 1
    outer loop
      vertex -9.5 -5 -0.0999992
      vertex -10 -5.5 -0.0999992
      vertex 10 -5.5 -0.0999992
    endloop
  endfacet
  facet normal 0 0 1
    outer loop
      vertex -9.94504 -4.94986 -0.0999992
      vertex -10.445 -5.44986 -0.0999992
      vertex -10 -5.34828 -0.0999992
    endloop
  endfacet
  facet normal 0 0 1
    outer loop
      vertex -11.3019 -3.86777 -0.0999992
      vertex -10.445 -5.44986 -0.0999992
      vertex -9.94504 -4.94986 -0.0999992
    endloop
  endfacet
  facet normal -0 0 1
    outer loop
      vertex -12 3.5 -0.0999992
      vertex -11.5 3 -0.0999992
      vertex -11.8019 3.5 -0.0999992
    endloop
  endfacet
  facet normal 0 0 1
    outer loop
      vertex -11.5 3 -0.0999992
      vertex -12 3.5 -0.0999992
      vertex -11.5 -3 -0.0999992
    endloop
  endfacet
  facet normal 0 0 1
    outer loop
      vertex -11.3019 -3 -0.0999992
      vertex -11.8019 -3.5 -0.0999992
      vertex -11.3019 -3.86777 -0.0999992
    endloop
  endfacet
  facet normal 0 0 1
    outer loop
      vertex -11.8019 -4.36777 -0.0999992
      vertex -11.3019 -3.86777 -0.0999992
      vertex -11.8019 -3.5 -0.0999992
    endloop
  endfacet
  facet normal 0 0 1
    outer loop
      vertex -11.3019 -3.86777 -0.0999992
      vertex -11.8019 -4.36777 -0.0999992
      vertex -10.445 -5.44986 -0.0999992
    endloop
  endfacet
  facet normal -0.222521 0.974928 0
    outer loop
      vertex -10 -5.34828 -0.0999992
      vertex -10.445 -5.44986 0.299999
      vertex -10 -5.34828 0.299999
    endloop
  endfacet
  facet normal -0.222521 0.974928 0
    outer loop
      vertex -10.445 -5.44986 0.299999
      vertex -10 -5.34828 -0.0999992
      vertex -10.445 -5.44986 -0.0999992
    endloop
  endfacet
  facet normal 1 -0 0
    outer loop
      vertex -11.8019 3.5 0.299999
      vertex -11.8019 4.36777 -0.0999992
      vertex -11.8019 4.36777 0.299999
    endloop
  endfacet
  facet normal 1 0 0
    outer loop
      vertex -11.8019 4.36777 -0.0999992
      vertex -11.8019 3.5 0.299999
      vertex -11.8019 3.5 -0.0999992
    endloop
  endfacet
  facet normal -0.222521 -0.974928 0
    outer loop
      vertex -10.445 5.44986 -0.0999992
      vertex -10 5.34828 0.299999
      vertex -10.445 5.44986 0.299999
    endloop
  endfacet
  facet normal -0.222521 -0.974928 -0
    outer loop
      vertex -10 5.34828 0.299999
      vertex -10.445 5.44986 -0.0999992
      vertex -10 5.34828 -0.0999992
    endloop
  endfacet
  facet normal 0.62349 -0.781831 0
    outer loop
      vertex -11.8019 4.36777 -0.0999992
      vertex -10.445 5.44986 0.299999
      vertex -11.8019 4.36777 0.299999
    endloop
  endfacet
  facet normal 0.62349 -0.781831 0
    outer loop
      vertex -10.445 5.44986 0.299999
      vertex -11.8019 4.36777 -0.0999992
      vertex -10.445 5.44986 -0.0999992
    endloop
  endfacet
  facet normal -0.222521 0.974928 0
    outer loop
      vertex 11.247 -5.06366 -0.0999992
      vertex 10 -5.34828 0.299999
      vertex 11.247 -5.06366 0.299999
    endloop
  endfacet
  facet normal -0.222521 0.974928 0
    outer loop
      vertex 10 -5.34828 0.299999
      vertex 11.247 -5.06366 -0.0999992
      vertex 10 -5.34828 -0.0999992
    endloop
  endfacet
  facet normal -0.900969 0.433884 0
    outer loop
      vertex 11.247 -5.06366 -0.0999992
      vertex 12 -3.5 0.299999
      vertex 12 -3.5 -0.0999992
    endloop
  endfacet
  facet normal -0.900969 0.433884 0
    outer loop
      vertex 12 -3.5 0.299999
      vertex 11.247 -5.06366 -0.0999992
      vertex 11.247 -5.06366 0.299999
    endloop
  endfacet
  facet normal -0.900969 -0.433884 0
    outer loop
      vertex 12 3.5 -0.0999992
      vertex 11.247 5.06366 0.299999
      vertex 11.247 5.06366 -0.0999992
    endloop
  endfacet
  facet normal -0.900969 -0.433884 0
    outer loop
      vertex 11.247 5.06366 0.299999
      vertex 12 3.5 -0.0999992
      vertex 12 3.5 0.299999
    endloop
  endfacet
  facet normal -0.222521 -0.974928 0
    outer loop
      vertex 10 5.34828 -0.0999992
      vertex 11.247 5.06366 0.299999
      vertex 10 5.34828 0.299999
    endloop
  endfacet
  facet normal -0.222521 -0.974928 -0
    outer loop
      vertex 11.247 5.06366 0.299999
      vertex 10 5.34828 -0.0999992
      vertex 11.247 5.06366 -0.0999992
    endloop
  endfacet
  facet normal 1 -0 0
    outer loop
      vertex -10 -5.5 0.299999
      vertex -10 -5.34828 -0.0999992
      vertex -10 -5.34828 0.299999
    endloop
  endfacet
  facet normal 1 0 0
    outer loop
      vertex -10 -5.34828 -0.0999992
      vertex -10 -5.5 0.299999
      vertex -10 -5.5 -0.0999992
    endloop
  endfacet
  facet normal 1 -0 0
    outer loop
      vertex -10 5.34828 0.299999
      vertex -10 5.5 -0.0999992
      vertex -10 5.5 0.299999
    endloop
  endfacet
  facet normal 1 0 0
    outer loop
      vertex -10 5.5 -0.0999992
      vertex -10 5.34828 0.299999
      vertex -10 5.34828 -0.0999992
    endloop
  endfacet
  facet normal -1 0 0
    outer loop
      vertex 10 -5.5 -0.0999992
      vertex 10 -5.34828 0.299999
      vertex 10 -5.34828 -0.0999992
    endloop
  endfacet
  facet normal -1 -0 0
    outer loop
      vertex 10 -5.34828 0.299999
      vertex 10 -5.5 -0.0999992
      vertex 10 -5.5 0.299999
    endloop
  endfacet
  facet normal -1 0 0
    outer loop
      vertex 10 5.34828 -0.0999992
      vertex 10 5.5 0.299999
      vertex 10 5.5 -0.0999992
    endloop
  endfacet
  facet normal -1 -0 0
    outer loop
      vertex 10 5.5 0.299999
      vertex 10 5.34828 -0.0999992
      vertex 10 5.34828 0.299999
    endloop
  endfacet
  facet normal 0 1 -0
    outer loop
      vertex 10 -5.5 -0.0999992
      vertex -10 -5.5 0.299999
      vertex 10 -5.5 0.299999
    endloop
  endfacet
  facet normal 0 1 0
    outer loop
      vertex -10 -5.5 0.299999
      vertex 10 -5.5 -0.0999992
      vertex -10 -5.5 -0.0999992
    endloop
  endfacet
  facet normal 0 -1 0
    outer loop
      vertex -10 5.5 -0.0999992
      vertex 10 5.5 0.299999
      vertex -10 5.5 0.299999
    endloop
  endfacet
  facet normal 0 -1 -0
    outer loop
      vertex 10 5.5 0.299999
      vertex -10 5.5 -0.0999992
      vertex 10 5.5 -0.0999992
    endloop
  endfacet
  facet normal 1 -0 0
    outer loop
      vertex -12 -3.5 0.299999
      vertex -12 3.5 -0.0999992
      vertex -12 3.5 0.299999
    endloop
  endfacet
  facet normal 1 0 0
    outer loop
      vertex -12 3.5 -0.0999992
      vertex -12 -3.5 0.299999
      vertex -12 -3.5 -0.0999992
    endloop
  endfacet
  facet normal -1 0 0
    outer loop
      vertex 12 -3.5 -0.0999992
      vertex 12 3.5 0.299999
      vertex 12 3.5 -0.0999992
    endloop
  endfacet
  facet normal -1 -0 0
    outer loop
      vertex 12 3.5 0.299999
      vertex 12 -3.5 -0.0999992
      vertex 12 -3.5 0.299999
    endloop
  endfacet
  facet normal 0 1 -0
    outer loop
      vertex -11.8019 -3.5 -0.0999992
      vertex -12 -3.5 0.299999
      vertex -11.8019 -3.5 0.299999
    endloop
  endfacet
  facet normal 0 1 0
    outer loop
      vertex -12 -3.5 0.299999
      vertex -11.8019 -3.5 -0.0999992
      vertex -12 -3.5 -0.0999992
    endloop
  endfacet
  facet normal 0 -1 0
    outer loop
      vertex -12 3.5 -0.0999992
      vertex -11.8019 3.5 0.299999
      vertex -12 3.5 0.299999
    endloop
  endfacet
  facet normal 0 -1 -0
    outer loop
      vertex -11.8019 3.5 0.299999
      vertex -12 3.5 -0.0999992
      vertex -11.8019 3.5 -0.0999992
    endloop
  endfacet
  facet normal 0.745353 0.24218 0.621126
    outer loop
      vertex 22.6667 0 0.0999996
      vertex 22.4757 0.587785 0.0999996
      vertex 22.5 0 0.299999
    endloop
  endfacet
  facet normal 0 0 -1
    outer loop
      vertex 25.1683 -1.88111 -0.3
      vertex 25.1683 1.88111 -0.3
      vertex 25.5 0 -0.3
    endloop
  endfacet
  facet normal 0 0 -1
    outer loop
      vertex 24.2132 -3.53533 -0.3
      vertex 25.1683 1.88111 -0.3
      vertex 25.1683 -1.88111 -0.3
    endloop
  endfacet
  facet normal 0 0 -1
    outer loop
      vertex 24.2132 -3.53533 -0.3
      vertex 24.2132 3.53533 -0.3
      vertex 25.1683 1.88111 -0.3
    endloop
  endfacet
  facet normal 0 0 -1
    outer loop
      vertex 22.75 -4.76314 -0.3
      vertex 24.2132 3.53533 -0.3
      vertex 24.2132 -3.53533 -0.3
    endloop
  endfacet
  facet normal 0 0 -1
    outer loop
      vertex 22.75 -4.76314 -0.3
      vertex 22.75 4.76314 -0.3
      vertex 24.2132 3.53533 -0.3
    endloop
  endfacet
  facet normal 0 0 -1
    outer loop
      vertex 20.9551 -5.41644 -0.3
      vertex 22.75 4.76314 -0.3
      vertex 22.75 -4.76314 -0.3
    endloop
  endfacet
  facet normal 0 0 -1
    outer loop
      vertex 20.9551 -5.41644 -0.3
      vertex 20.9551 5.41644 -0.3
      vertex 22.75 4.76314 -0.3
    endloop
  endfacet
  facet normal 0 0 -1
    outer loop
      vertex 19.0449 -5.41644 -0.3
      vertex 20.9551 5.41644 -0.3
      vertex 20.9551 -5.41644 -0.3
    endloop
  endfacet
  facet normal 0 0 -1
    outer loop
      vertex 19.0449 -5.41644 -0.3
      vertex 19.0449 5.41644 -0.3
      vertex 20.9551 5.41644 -0.3
    endloop
  endfacet
  facet normal 0 0 -1
    outer loop
      vertex 17.25 -4.76314 -0.3
      vertex 19.0449 5.41644 -0.3
      vertex 19.0449 -5.41644 -0.3
    endloop
  endfacet
  facet normal 0 0 -1
    outer loop
      vertex 17.25 -4.76314 -0.3
      vertex 17.25 4.76314 -0.3
      vertex 19.0449 5.41644 -0.3
    endloop
  endfacet
  facet normal 0 0 -1
    outer loop
      vertex 15.7868 -3.53533 -0.3
      vertex 17.25 4.76314 -0.3
      vertex 17.25 -4.76314 -0.3
    endloop
  endfacet
  facet normal 0 0 -1
    outer loop
      vertex 15.7868 -3.53533 -0.3
      vertex 15.7868 3.53533 -0.3
      vertex 17.25 4.76314 -0.3
    endloop
  endfacet
  facet normal 0 0 -1
    outer loop
      vertex 14.8317 -1.88111 -0.3
      vertex 15.7868 3.53533 -0.3
      vertex 15.7868 -3.53533 -0.3
    endloop
  endfacet
  facet normal 0 0 -1
    outer loop
      vertex 14.8317 -1.88111 -0.3
      vertex 14.8317 1.88111 -0.3
      vertex 15.7868 3.53533 -0.3
    endloop
  endfacet
  facet normal 0 -0 -1
    outer loop
      vertex 14.8317 1.88111 -0.3
      vertex 14.8317 -1.88111 -0.3
      vertex 14.5 0 -0.3
    endloop
  endfacet
  facet normal 0 0 1
    outer loop
      vertex 22.0225 1.46946 0.299999
      vertex 22.0225 -1.46946 0.299999
      vertex 22.5 0 0.299999
    endloop
  endfacet
  facet normal 0 0 1
    outer loop
      vertex 20.7725 2.37764 0.299999
      vertex 22.0225 -1.46946 0.299999
      vertex 22.0225 1.46946 0.299999
    endloop
  endfacet
  facet normal 0 0 1
    outer loop
      vertex 20.7725 2.37764 0.299999
      vertex 20.7725 -2.37764 0.299999
      vertex 22.0225 -1.46946 0.299999
    endloop
  endfacet
  facet normal -0 0 1
    outer loop
      vertex 19.2275 2.37764 0.299999
      vertex 20.7725 -2.37764 0.299999
      vertex 20.7725 2.37764 0.299999
    endloop
  endfacet
  facet normal 0 0 1
    outer loop
      vertex 19.2275 2.37764 0.299999
      vertex 19.2275 -2.37764 0.299999
      vertex 20.7725 -2.37764 0.299999
    endloop
  endfacet
  facet normal -0 0 1
    outer loop
      vertex 17.9775 1.46946 0.299999
      vertex 19.2275 -2.37764 0.299999
      vertex 19.2275 2.37764 0.299999
    endloop
  endfacet
  facet normal 0 0 1
    outer loop
      vertex 17.9775 1.46946 0.299999
      vertex 17.9775 -1.46946 0.299999
      vertex 19.2275 -2.37764 0.299999
    endloop
  endfacet
  facet normal 0 -0 1
    outer loop
      vertex 17.9775 -1.46946 0.299999
      vertex 17.9775 1.46946 0.299999
      vertex 17.5 0 0.299999
    endloop
  endfacet
  facet normal 0.460652 0.634032 0.62113
    outer loop
      vertex 22.1574 1.56743 0.0999996
      vertex 21.6574 1.9307 0.0999996
      vertex 22.0225 1.46946 0.299999
    endloop
  endfacet
  facet normal -0.460652 -0.634032 0.62113
    outer loop
      vertex 18.3426 -1.9307 0.0999996
      vertex 19.2275 -2.37764 0.299999
      vertex 17.9775 -1.46946 0.299999
    endloop
  endfacet
  facet normal -0.460652 -0.634033 0.621129
    outer loop
      vertex 19.2275 -2.37764 0.299999
      vertex 18.3426 -1.9307 0.0999996
      vertex 19.176 -2.53615 0.0999996
    endloop
  endfacet
  facet normal 0 -0.783709 0.621128
    outer loop
      vertex 19.176 -2.53615 0.0999996
      vertex 20.7725 -2.37764 0.299999
      vertex 19.2275 -2.37764 0.299999
    endloop
  endfacet
  facet normal 0 -0.783709 0.621128
    outer loop
      vertex 20.7725 -2.37764 0.299999
      vertex 19.176 -2.53615 0.0999996
      vertex 20.824 -2.53615 0.0999996
    endloop
  endfacet
  facet normal -0.460652 0.634032 0.62113
    outer loop
      vertex 18.3426 1.9307 0.0999996
      vertex 17.8426 1.56743 0.0999996
      vertex 17.9775 1.46946 0.299999
    endloop
  endfacet
  facet normal 0 0.783709 0.621128
    outer loop
      vertex 20.824 2.53615 0.0999996
      vertex 19.2275 2.37764 0.299999
      vertex 20.7725 2.37764 0.299999
    endloop
  endfacet
  facet normal 0 0.783709 0.621128
    outer loop
      vertex 19.2275 2.37764 0.299999
      vertex 20.824 2.53615 0.0999996
      vertex 19.176 2.53615 0.0999996
    endloop
  endfacet
  facet normal 0.460652 0.634032 0.62113
    outer loop
      vertex 21.6574 1.9307 0.0999996
      vertex 20.7725 2.37764 0.299999
      vertex 22.0225 1.46946 0.299999
    endloop
  endfacet
  facet normal 0.460652 0.634033 0.621129
    outer loop
      vertex 20.7725 2.37764 0.299999
      vertex 21.6574 1.9307 0.0999996
      vertex 20.824 2.53615 0.0999996
    endloop
  endfacet
  facet normal 0.745349 0.242178 0.621132
    outer loop
      vertex 22.0225 1.46946 0.299999
      vertex 22.4757 0.587785 0.0999996
      vertex 22.1574 1.56743 0.0999996
    endloop
  endfacet
  facet normal 0.745352 0.24218 0.621128
    outer loop
      vertex 22.4757 0.587785 0.0999996
      vertex 22.0225 1.46946 0.299999
      vertex 22.5 0 0.299999
    endloop
  endfacet
  facet normal -0.460652 0.634033 0.621129
    outer loop
      vertex 18.3426 1.9307 0.0999996
      vertex 19.2275 2.37764 0.299999
      vertex 19.176 2.53615 0.0999996
    endloop
  endfacet
  facet normal -0.460652 0.634032 0.62113
    outer loop
      vertex 19.2275 2.37764 0.299999
      vertex 18.3426 1.9307 0.0999996
      vertex 17.9775 1.46946 0.299999
    endloop
  endfacet
  facet normal -0.745353 0.24218 0.621126
    outer loop
      vertex 17.5243 0.587785 0.0999996
      vertex 17.3333 0 0.0999996
      vertex 17.5 0 0.299999
    endloop
  endfacet
  facet normal 0.460652 -0.634033 0.621129
    outer loop
      vertex 21.6574 -1.9307 0.0999996
      vertex 20.7725 -2.37764 0.299999
      vertex 20.824 -2.53615 0.0999996
    endloop
  endfacet
  facet normal 0.460652 -0.634032 0.62113
    outer loop
      vertex 20.7725 -2.37764 0.299999
      vertex 21.6574 -1.9307 0.0999996
      vertex 22.0225 -1.46946 0.299999
    endloop
  endfacet
  facet normal 0.745353 -0.24218 0.621126
    outer loop
      vertex 22.5 0 0.299999
      vertex 22.4757 -0.587785 0.0999996
      vertex 22.6667 0 0.0999996
    endloop
  endfacet
  facet normal -0.745353 -0.24218 0.621126
    outer loop
      vertex 17.5 0 0.299999
      vertex 17.3333 0 0.0999996
      vertex 17.5243 -0.587785 0.0999996
    endloop
  endfacet
  facet normal -0.745349 0.242178 0.621132
    outer loop
      vertex 17.5243 0.587785 0.0999996
      vertex 17.9775 1.46946 0.299999
      vertex 17.8426 1.56743 0.0999996
    endloop
  endfacet
  facet normal -0.745352 0.24218 0.621128
    outer loop
      vertex 17.9775 1.46946 0.299999
      vertex 17.5243 0.587785 0.0999996
      vertex 17.5 0 0.299999
    endloop
  endfacet
  facet normal 0.460652 -0.634032 0.62113
    outer loop
      vertex 22.0225 -1.46946 0.299999
      vertex 21.6574 -1.9307 0.0999996
      vertex 22.1574 -1.56743 0.0999996
    endloop
  endfacet
  facet normal 0.745352 -0.24218 0.621128
    outer loop
      vertex 22.0225 -1.46946 0.299999
      vertex 22.4757 -0.587785 0.0999996
      vertex 22.5 0 0.299999
    endloop
  endfacet
  facet normal 0.745349 -0.242178 0.621132
    outer loop
      vertex 22.4757 -0.587785 0.0999996
      vertex 22.0225 -1.46946 0.299999
      vertex 22.1574 -1.56743 0.0999996
    endloop
  endfacet
  facet normal -0.745352 -0.24218 0.621128
    outer loop
      vertex 17.5243 -0.587785 0.0999996
      vertex 17.9775 -1.46946 0.299999
      vertex 17.5 0 0.299999
    endloop
  endfacet
  facet normal -0.745349 -0.242178 0.621132
    outer loop
      vertex 17.9775 -1.46946 0.299999
      vertex 17.5243 -0.587785 0.0999996
      vertex 17.8426 -1.56743 0.0999996
    endloop
  endfacet
  facet normal -0.460652 -0.634032 0.62113
    outer loop
      vertex 17.9775 -1.46946 0.299999
      vertex 17.8426 -1.56743 0.0999996
      vertex 18.3426 -1.9307 0.0999996
    endloop
  endfacet
  facet normal 0.984808 0.173649 0
    outer loop
      vertex 25.5 0 0.0999996
      vertex 25.1683 1.88111 -0.3
      vertex 25.1683 1.88111 0.0999996
    endloop
  endfacet
  facet normal 0.984808 0.173649 0
    outer loop
      vertex 25.1683 1.88111 -0.3
      vertex 25.5 0 0.0999996
      vertex 25.5 0 -0.3
    endloop
  endfacet
  facet normal -0.984808 0.173648 0
    outer loop
      vertex 14.5 0 -0.3
      vertex 14.8317 1.88111 0.0999996
      vertex 14.8317 1.88111 -0.3
    endloop
  endfacet
  facet normal -0.984808 0.173648 0
    outer loop
      vertex 14.8317 1.88111 0.0999996
      vertex 14.5 0 -0.3
      vertex 14.5 0 0.0999996
    endloop
  endfacet
  facet normal -0.984808 -0.173648 0
    outer loop
      vertex 14.8317 -1.88111 -0.3
      vertex 14.5 0 0.0999996
      vertex 14.5 0 -0.3
    endloop
  endfacet
  facet normal -0.984808 -0.173648 0
    outer loop
      vertex 14.5 0 0.0999996
      vertex 14.8317 -1.88111 -0.3
      vertex 14.8317 -1.88111 0.0999996
    endloop
  endfacet
  facet normal 0 1 -0
    outer loop
      vertex 20.9551 5.41644 -0.3
      vertex 19.0449 5.41644 0.0999996
      vertex 20.9551 5.41644 0.0999996
    endloop
  endfacet
  facet normal 0 1 0
    outer loop
      vertex 19.0449 5.41644 0.0999996
      vertex 20.9551 5.41644 -0.3
      vertex 19.0449 5.41644 -0.3
    endloop
  endfacet
  facet normal 0.642788 0.766044 -0
    outer loop
      vertex 24.2132 3.53533 -0.3
      vertex 22.75 4.76314 0.0999996
      vertex 24.2132 3.53533 0.0999996
    endloop
  endfacet
  facet normal 0.642788 0.766044 0
    outer loop
      vertex 22.75 4.76314 0.0999996
      vertex 24.2132 3.53533 -0.3
      vertex 22.75 4.76314 -0.3
    endloop
  endfacet
  facet normal 0.866026 0.5 0
    outer loop
      vertex 25.1683 1.88111 0.0999996
      vertex 24.2132 3.53533 -0.3
      vertex 24.2132 3.53533 0.0999996
    endloop
  endfacet
  facet normal 0.866026 0.5 0
    outer loop
      vertex 24.2132 3.53533 -0.3
      vertex 25.1683 1.88111 0.0999996
      vertex 25.1683 1.88111 -0.3
    endloop
  endfacet
  facet normal -0.34202 0.939693 0
    outer loop
      vertex 19.0449 5.41644 -0.3
      vertex 17.25 4.76314 0.0999996
      vertex 19.0449 5.41644 0.0999996
    endloop
  endfacet
  facet normal -0.34202 0.939693 0
    outer loop
      vertex 17.25 4.76314 0.0999996
      vertex 19.0449 5.41644 -0.3
      vertex 17.25 4.76314 -0.3
    endloop
  endfacet
  facet normal -0.642788 0.766044 0
    outer loop
      vertex 17.25 4.76314 -0.3
      vertex 15.7868 3.53533 0.0999996
      vertex 17.25 4.76314 0.0999996
    endloop
  endfacet
  facet normal -0.642788 0.766044 0
    outer loop
      vertex 15.7868 3.53533 0.0999996
      vertex 17.25 4.76314 -0.3
      vertex 15.7868 3.53533 -0.3
    endloop
  endfacet
  facet normal 0.34202 -0.939693 0
    outer loop
      vertex 20.9551 -5.41644 -0.3
      vertex 22.75 -4.76314 0.0999996
      vertex 20.9551 -5.41644 0.0999996
    endloop
  endfacet
  facet normal 0.34202 -0.939693 0
    outer loop
      vertex 22.75 -4.76314 0.0999996
      vertex 20.9551 -5.41644 -0.3
      vertex 22.75 -4.76314 -0.3
    endloop
  endfacet
  facet normal 0.34202 0.939693 -0
    outer loop
      vertex 22.75 4.76314 -0.3
      vertex 20.9551 5.41644 0.0999996
      vertex 22.75 4.76314 0.0999996
    endloop
  endfacet
  facet normal 0.34202 0.939693 0
    outer loop
      vertex 20.9551 5.41644 0.0999996
      vertex 22.75 4.76314 -0.3
      vertex 20.9551 5.41644 -0.3
    endloop
  endfacet
  facet normal 0 0 1
    outer loop
      vertex 22.6667 0 0.0999996
      vertex 25.5 0 0.0999996
      vertex 25.1683 1.88111 0.0999996
    endloop
  endfacet
  facet normal 0 0 1
    outer loop
      vertex 22.1574 1.56743 0.0999996
      vertex 25.1683 1.88111 0.0999996
      vertex 24.2132 3.53533 0.0999996
    endloop
  endfacet
  facet normal 0 0 1
    outer loop
      vertex 25.5 0 0.0999996
      vertex 22.6667 0 0.0999996
      vertex 25.1683 -1.88111 0.0999996
    endloop
  endfacet
  facet normal 0 0 1
    outer loop
      vertex 21.6574 1.9307 0.0999996
      vertex 24.2132 3.53533 0.0999996
      vertex 22.75 4.76314 0.0999996
    endloop
  endfacet
  facet normal -0 0 1
    outer loop
      vertex 22.4757 -0.587785 0.0999996
      vertex 25.1683 -1.88111 0.0999996
      vertex 22.6667 0 0.0999996
    endloop
  endfacet
  facet normal -0 0 1
    outer loop
      vertex 22.1574 -1.56743 0.0999996
      vertex 25.1683 -1.88111 0.0999996
      vertex 22.4757 -0.587785 0.0999996
    endloop
  endfacet
  facet normal 0 0 1
    outer loop
      vertex 25.1683 1.88111 0.0999996
      vertex 22.4757 0.587785 0.0999996
      vertex 22.6667 0 0.0999996
    endloop
  endfacet
  facet normal 0 0 1
    outer loop
      vertex 25.1683 1.88111 0.0999996
      vertex 22.1574 1.56743 0.0999996
      vertex 22.4757 0.587785 0.0999996
    endloop
  endfacet
  facet normal 0 0 1
    outer loop
      vertex 24.2132 3.53533 0.0999996
      vertex 21.6574 1.9307 0.0999996
      vertex 22.1574 1.56743 0.0999996
    endloop
  endfacet
  facet normal 0 0 1
    outer loop
      vertex 20.824 2.53615 0.0999996
      vertex 22.75 4.76314 0.0999996
      vertex 20.9551 5.41644 0.0999996
    endloop
  endfacet
  facet normal 0 0 1
    outer loop
      vertex 22.75 4.76314 0.0999996
      vertex 20.824 2.53615 0.0999996
      vertex 21.6574 1.9307 0.0999996
    endloop
  endfacet
  facet normal 0 0 1
    outer loop
      vertex 20.9551 5.41644 0.0999996
      vertex 19.176 2.53615 0.0999996
      vertex 20.824 2.53615 0.0999996
    endloop
  endfacet
  facet normal -0 0 1
    outer loop
      vertex 19.0449 5.41644 0.0999996
      vertex 19.176 2.53615 0.0999996
      vertex 20.9551 5.41644 0.0999996
    endloop
  endfacet
  facet normal -0 0 1
    outer loop
      vertex 17.25 4.76314 0.0999996
      vertex 19.176 2.53615 0.0999996
      vertex 19.0449 5.41644 0.0999996
    endloop
  endfacet
  facet normal 0 0 1
    outer loop
      vertex 19.176 2.53615 0.0999996
      vertex 17.25 4.76314 0.0999996
      vertex 18.3426 1.9307 0.0999996
    endloop
  endfacet
  facet normal -0 0 1
    outer loop
      vertex 15.7868 3.53533 0.0999996
      vertex 18.3426 1.9307 0.0999996
      vertex 17.25 4.76314 0.0999996
    endloop
  endfacet
  facet normal 0 0 1
    outer loop
      vertex 18.3426 1.9307 0.0999996
      vertex 15.7868 3.53533 0.0999996
      vertex 17.8426 1.56743 0.0999996
    endloop
  endfacet
  facet normal -0 0 1
    outer loop
      vertex 14.8317 1.88111 0.0999996
      vertex 17.8426 1.56743 0.0999996
      vertex 15.7868 3.53533 0.0999996
    endloop
  endfacet
  facet normal 0 0 1
    outer loop
      vertex 25.1683 -1.88111 0.0999996
      vertex 22.1574 -1.56743 0.0999996
      vertex 24.2132 -3.53533 0.0999996
    endloop
  endfacet
  facet normal -0 0 1
    outer loop
      vertex 21.6574 -1.9307 0.0999996
      vertex 24.2132 -3.53533 0.0999996
      vertex 22.1574 -1.56743 0.0999996
    endloop
  endfacet
  facet normal 0 0 1
    outer loop
      vertex 24.2132 -3.53533 0.0999996
      vertex 21.6574 -1.9307 0.0999996
      vertex 22.75 -4.76314 0.0999996
    endloop
  endfacet
  facet normal -0 0 1
    outer loop
      vertex 20.824 -2.53615 0.0999996
      vertex 22.75 -4.76314 0.0999996
      vertex 21.6574 -1.9307 0.0999996
    endloop
  endfacet
  facet normal 0 0 1
    outer loop
      vertex 22.75 -4.76314 0.0999996
      vertex 20.824 -2.53615 0.0999996
      vertex 20.9551 -5.41644 0.0999996
    endloop
  endfacet
  facet normal -0 0 1
    outer loop
      vertex 19.176 -2.53615 0.0999996
      vertex 20.9551 -5.41644 0.0999996
      vertex 20.824 -2.53615 0.0999996
    endloop
  endfacet
  facet normal 0 0 1
    outer loop
      vertex 19.176 -2.53615 0.0999996
      vertex 19.0449 -5.41644 0.0999996
      vertex 20.9551 -5.41644 0.0999996
    endloop
  endfacet
  facet normal 0 0 1
    outer loop
      vertex 17.25 -4.76314 0.0999996
      vertex 19.176 -2.53615 0.0999996
      vertex 18.3426 -1.9307 0.0999996
    endloop
  endfacet
  facet normal 0 0 1
    outer loop
      vertex 15.7868 -3.53533 0.0999996
      vertex 18.3426 -1.9307 0.0999996
      vertex 17.8426 -1.56743 0.0999996
    endloop
  endfacet
  facet normal 0 0 1
    outer loop
      vertex 14.8317 -1.88111 0.0999996
      vertex 17.8426 -1.56743 0.0999996
      vertex 17.5243 -0.587785 0.0999996
    endloop
  endfacet
  facet normal 0 0 1
    outer loop
      vertex 14.8317 -1.88111 0.0999996
      vertex 17.5243 -0.587785 0.0999996
      vertex 17.3333 0 0.0999996
    endloop
  endfacet
  facet normal 0 0 1
    outer loop
      vertex 19.176 -2.53615 0.0999996
      vertex 17.25 -4.76314 0.0999996
      vertex 19.0449 -5.41644 0.0999996
    endloop
  endfacet
  facet normal 0 0 1
    outer loop
      vertex 17.8426 1.56743 0.0999996
      vertex 14.8317 1.88111 0.0999996
      vertex 17.5243 0.587785 0.0999996
    endloop
  endfacet
  facet normal 0 0 1
    outer loop
      vertex 17.5243 0.587785 0.0999996
      vertex 14.8317 1.88111 0.0999996
      vertex 17.3333 0 0.0999996
    endloop
  endfacet
  facet normal 0 0 1
    outer loop
      vertex 18.3426 -1.9307 0.0999996
      vertex 15.7868 -3.53533 0.0999996
      vertex 17.25 -4.76314 0.0999996
    endloop
  endfacet
  facet normal 0 0 1
    outer loop
      vertex 14.5 0 0.0999996
      vertex 17.3333 0 0.0999996
      vertex 14.8317 1.88111 0.0999996
    endloop
  endfacet
  facet normal 0 0 1
    outer loop
      vertex 17.8426 -1.56743 0.0999996
      vertex 14.8317 -1.88111 0.0999996
      vertex 15.7868 -3.53533 0.0999996
    endloop
  endfacet
  facet normal 0 0 1
    outer loop
      vertex 17.3333 0 0.0999996
      vertex 14.5 0 0.0999996
      vertex 14.8317 -1.88111 0.0999996
    endloop
  endfacet
  facet normal -0.866025 0.5 0
    outer loop
      vertex 14.8317 1.88111 -0.3
      vertex 15.7868 3.53533 0.0999996
      vertex 15.7868 3.53533 -0.3
    endloop
  endfacet
  facet normal -0.866025 0.5 0
    outer loop
      vertex 15.7868 3.53533 0.0999996
      vertex 14.8317 1.88111 -0.3
      vertex 14.8317 1.88111 0.0999996
    endloop
  endfacet
  facet normal 0.866026 -0.5 0
    outer loop
      vertex 24.2132 -3.53533 0.0999996
      vertex 25.1683 -1.88111 -0.3
      vertex 25.1683 -1.88111 0.0999996
    endloop
  endfacet
  facet normal 0.866026 -0.5 0
    outer loop
      vertex 25.1683 -1.88111 -0.3
      vertex 24.2132 -3.53533 0.0999996
      vertex 24.2132 -3.53533 -0.3
    endloop
  endfacet
  facet normal 0.984808 -0.173649 0
    outer loop
      vertex 25.1683 -1.88111 0.0999996
      vertex 25.5 0 -0.3
      vertex 25.5 0 0.0999996
    endloop
  endfacet
  facet normal 0.984808 -0.173649 0
    outer loop
      vertex 25.5 0 -0.3
      vertex 25.1683 -1.88111 0.0999996
      vertex 25.1683 -1.88111 -0.3
    endloop
  endfacet
  facet normal -0.866025 -0.5 0
    outer loop
      vertex 15.7868 -3.53533 -0.3
      vertex 14.8317 -1.88111 0.0999996
      vertex 14.8317 -1.88111 -0.3
    endloop
  endfacet
  facet normal -0.866025 -0.5 0
    outer loop
      vertex 14.8317 -1.88111 0.0999996
      vertex 15.7868 -3.53533 -0.3
      vertex 15.7868 -3.53533 0.0999996
    endloop
  endfacet
  facet normal 0.642788 -0.766044 0
    outer loop
      vertex 22.75 -4.76314 -0.3
      vertex 24.2132 -3.53533 0.0999996
      vertex 22.75 -4.76314 0.0999996
    endloop
  endfacet
  facet normal 0.642788 -0.766044 0
    outer loop
      vertex 24.2132 -3.53533 0.0999996
      vertex 22.75 -4.76314 -0.3
      vertex 24.2132 -3.53533 -0.3
    endloop
  endfacet
  facet normal 0 -1 0
    outer loop
      vertex 19.0449 -5.41644 -0.3
      vertex 20.9551 -5.41644 0.0999996
      vertex 19.0449 -5.41644 0.0999996
    endloop
  endfacet
  facet normal 0 -1 -0
    outer loop
      vertex 20.9551 -5.41644 0.0999996
      vertex 19.0449 -5.41644 -0.3
      vertex 20.9551 -5.41644 -0.3
    endloop
  endfacet
  facet normal -0.34202 -0.939693 0
    outer loop
      vertex 17.25 -4.76314 -0.3
      vertex 19.0449 -5.41644 0.0999996
      vertex 17.25 -4.76314 0.0999996
    endloop
  endfacet
  facet normal -0.34202 -0.939693 -0
    outer loop
      vertex 19.0449 -5.41644 0.0999996
      vertex 17.25 -4.76314 -0.3
      vertex 19.0449 -5.41644 -0.3
    endloop
  endfacet
  facet normal -0.642788 -0.766044 0
    outer loop
      vertex 15.7868 -3.53533 -0.3
      vertex 17.25 -4.76314 0.0999996
      vertex 15.7868 -3.53533 0.0999996
    endloop
  endfacet
  facet normal -0.642788 -0.766044 -0
    outer loop
      vertex 17.25 -4.76314 0.0999996
      vertex 15.7868 -3.53533 -0.3
      vertex 17.25 -4.76314 -0.3
    endloop
  endfacet
endsolid OpenSCAD_Model
